<svg xmlns="http://www.w3.org/2000/svg" viewBox="0 0 1400 900" fill="none">
  <rect width="1400" height="900" fill="#F5F6F9" />

  <!-- top bar -->
  <rect x="0" y="0" width="1400" height="72" fill="#FFFFFF" />
  <rect x="0" y="71" width="1400" height="1" fill="#E1E4EC" />
  <circle cx="48" cy="36" r="14" fill="#5B4FCF" />
  <rect x="72" y="28" width="140" height="16" rx="8" fill="#10182B" />
  <rect x="1204" y="26" width="168" height="20" rx="10" fill="#F5F6F9" />

  <!-- tabs -->
  <rect x="0" y="72" width="1400" height="56" fill="#FFFFFF" />
  <rect x="0" y="127" width="1400" height="1" fill="#E1E4EC" />
  <rect x="60" y="92" width="120" height="16" rx="8" fill="#1C56A6" />
  <rect x="220" y="92" width="100" height="16" rx="8" fill="#4A5468" />
  <rect x="360" y="92" width="110" height="16" rx="8" fill="#4A5468" />
  <rect x="510" y="92" width="90" height="16" rx="8" fill="#4A5468" />

  <!-- toolbar -->
  <rect x="60" y="160" width="220" height="40" rx="10" fill="#FFFFFF" stroke="#E1E4EC" />
  <rect x="1120" y="160" width="220" height="40" rx="10" fill="#1C56A6" />

  <!-- table -->
  <rect x="60" y="224" width="1280" height="580" rx="16" fill="#FFFFFF" stroke="#E1E4EC" />
  <rect x="60" y="224" width="1280" height="52" fill="#F5F6F9" />
  <rect x="92" y="242" width="120" height="14" rx="7" fill="#4A5468" />
  <rect x="392" y="242" width="140" height="14" rx="7" fill="#4A5468" />
  <rect x="692" y="242" width="110" height="14" rx="7" fill="#4A5468" />
  <rect x="992" y="242" width="130" height="14" rx="7" fill="#4A5468" />

  <g>
    <rect x="60" y="276" width="1280" height="1" fill="#E1E4EC" />
    <rect x="92" y="300" width="180" height="14" rx="7" fill="#10182B" />
    <rect x="392" y="300" width="200" height="14" rx="7" fill="#10182B" />
    <rect x="692" y="300" width="70" height="26" rx="13" fill="#E9F7EF" />
    <rect x="992" y="300" width="90" height="14" rx="7" fill="#4A5468" />
  </g>
  <g>
    <rect x="60" y="344" width="1280" height="1" fill="#E1E4EC" />
    <rect x="92" y="368" width="160" height="14" rx="7" fill="#10182B" />
    <rect x="392" y="368" width="220" height="14" rx="7" fill="#10182B" />
    <rect x="692" y="368" width="70" height="26" rx="13" fill="#FDF0E3" />
    <rect x="992" y="368" width="90" height="14" rx="7" fill="#4A5468" />
  </g>
  <g>
    <rect x="60" y="412" width="1280" height="1" fill="#E1E4EC" />
    <rect x="92" y="436" width="200" height="14" rx="7" fill="#10182B" />
    <rect x="392" y="436" width="180" height="14" rx="7" fill="#10182B" />
    <rect x="692" y="436" width="70" height="26" rx="13" fill="#E9F7EF" />
    <rect x="992" y="436" width="90" height="14" rx="7" fill="#4A5468" />
  </g>
  <g>
    <rect x="60" y="480" width="1280" height="1" fill="#E1E4EC" />
    <rect x="92" y="504" width="150" height="14" rx="7" fill="#10182B" />
    <rect x="392" y="504" width="240" height="14" rx="7" fill="#10182B" />
    <rect x="692" y="504" width="70" height="26" rx="13" fill="#FCE9E9" />
    <rect x="992" y="504" width="90" height="14" rx="7" fill="#4A5468" />
  </g>
  <g>
    <rect x="60" y="548" width="1280" height="1" fill="#E1E4EC" />
    <rect x="92" y="572" width="190" height="14" rx="7" fill="#10182B" />
    <rect x="392" y="572" width="160" height="14" rx="7" fill="#10182B" />
    <rect x="692" y="572" width="70" height="26" rx="13" fill="#E9F7EF" />
    <rect x="992" y="572" width="90" height="14" rx="7" fill="#4A5468" />
  </g>

  <!-- placeholder badge -->
  <rect x="1132" y="836" width="236" height="40" rx="20" fill="#10182B" fill-opacity="0.85" />
  <text x="1250" y="862" font-family="monospace" font-size="16" fill="#FFFFFF" text-anchor="middle">PLACEHOLDER</text>
</svg>
